<svg width="22" height="23" viewBox="0 0 22 23" fill="none" xmlns="http://www.w3.org/2000/svg">
<g id="solar:letter-bold-duotone">
<g id="Group">
<path id="Vector" d="M13.0167 3.7373H8.98335C5.18102 3.7373 3.27894 3.7373 2.09827 4.94547C0.916687 6.15364 0.916687 8.0988 0.916687 11.9873C0.916687 15.8767 0.916687 17.821 2.09827 19.0291C3.27894 20.2373 5.18102 20.2373 8.98335 20.2373H13.0167C16.819 20.2373 18.7211 20.2373 19.9018 19.0291C21.0834 17.821 21.0834 15.8758 21.0834 11.9873C21.0834 8.09789 21.0834 6.15364 19.9018 4.94547C18.7211 3.7373 16.819 3.7373 13.0167 3.7373Z" fill="#C08EF3"/>
<path id="Vector_2" d="M17.534 8.35067C17.6882 8.2223 17.785 8.03796 17.8032 7.83821C17.8214 7.63845 17.7596 7.43963 17.6312 7.2855C17.5028 7.13136 17.3185 7.03454 17.1187 7.01631C16.919 6.99809 16.7202 7.05997 16.566 7.18833L14.389 9.00333C13.4485 9.78708 12.7958 10.3297 12.244 10.6836C11.7105 11.0273 11.3484 11.1419 11 11.1419C10.6517 11.1419 10.2905 11.0273 9.75612 10.6836C9.20521 10.3297 8.55163 9.78708 7.61113 9.00242L5.43404 7.18833C5.27991 7.05997 5.08109 6.99809 4.88133 7.01631C4.68158 7.03454 4.49724 7.13136 4.36887 7.2855C4.24051 7.43963 4.17863 7.63845 4.19686 7.83821C4.21508 8.03796 4.31191 8.2223 4.46604 8.35067L6.68071 10.1968C7.57446 10.9412 8.29863 11.5443 8.93846 11.9568C9.60396 12.384 10.253 12.6553 11.001 12.6553C11.7471 12.6553 12.3961 12.384 13.0616 11.9559C13.7015 11.5452 14.4256 10.9412 15.3194 10.1959L17.534 8.35067Z" fill="#7835BC"/>
</g>
</g>
</svg>
